<?xml version="1.0"?>
<!-- Created by MetaPost 2.000 on 2020.09.11:1837 -->
<svg version="1.1" xmlns="http://www.w3.org/2000/svg" xmlns:xlink="http://www.w3.org/1999/xlink" width="100.000000" height="100.000000" viewBox="0 0 100.000000 100.000000">
<!-- Original BoundingBox: 0.000000 0.000000 100.000000 100.000000 -->
  <path d="M90.500031 54.499969C90.500031 43.758209,86.232254 33.457703,78.637253 25.862717C71.042267 18.267715,60.741760 13.999939,50.000000 13.999939C39.258240 13.999939,28.957733 18.267715,21.362747 25.862717C13.767746 33.457703,9.499969 43.758209,9.499969 54.499969C9.499969 65.241730,13.767746 75.542236,21.362747 83.137222C28.957733 90.732224,39.258240 95.000000,50.000000 95.000000C60.741760 95.000000,71.042267 90.732224,78.637253 83.137222C86.232254 75.542236,90.500031 65.241730,90.500031 54.499969Z" style="fill: rgb(85.200500%,64.500427%,12.500000%);stroke: none;"></path>
  <path d="M37.538452 47.023041C38.108521 47.230530,42.576080 51.177094,43.146149 51.384583C47.240875 52.874954,45.866806 70.349197,43.146149 75.061523C48.201248 75.061523,60.211487 61.276779,59.346161 56.369202C70.498764 58.335678,82.492386 59.367813,80.680405 49.090256C79.245728 40.952866,74.636536 33.720581,67.869171 28.981140C61.100845 24.242645,52.727676 22.384903,44.590286 23.819565C36.452896 25.254242,29.220612 29.863434,24.481171 36.630798C19.742676 43.399124,17.884933 51.772293,19.319595 59.909683C20.754272 68.047073,25.363464 75.279358,32.130829 80.018799C38.899155 84.757294,47.272324 86.615036,55.409714 85.180374C61.919434 84.032822,67.850159 80.853546,72.388992 76.162598C69.072037 74.955307,66.537491 72.227371,65.576935 68.830750" style="stroke:rgb(0.000000%,0.000000%,0.000000%); stroke-width: 4.984619;stroke-linecap: round;stroke-linejoin: round;stroke-miterlimit: 10.000000;fill: none;"></path>
  <path d="M69.315399 40.792267C69.315399 39.304947,68.724472 37.878723,67.672867 36.827103C66.621246 35.775497,65.195023 35.184570,63.707703 35.184570C62.220383 35.184570,60.794159 35.775497,59.742538 36.827103C58.690933 37.878723,58.100006 39.304947,58.100006 40.792267C58.100006 42.279587,58.690933 43.705811,59.742538 44.757431C60.794159 45.809036,62.220383 46.399963,63.707703 46.399963C65.195023 46.399963,66.621246 45.809036,67.672867 44.757431C68.724472 43.705811,69.315399 42.279587,69.315399 40.792267Z" style="fill: rgb(0.000000%,0.000000%,0.000000%);stroke: none;"></path>
</svg>
